<svg xmlns="http://www.w3.org/2000/svg" width="143.998" height="143.997" viewBox="0 0 143.998 143.997">
  <g id="increase" transform="translate(0 -0.002)">
    <g id="Group_3" data-name="Group 3" transform="translate(0 135.562)">
      <g id="Group_2" data-name="Group 2">
        <path id="Path_5" data-name="Path 5" d="M139.779,482H4.219a4.219,4.219,0,1,0,0,8.437h135.56a4.219,4.219,0,1,0,0-8.437Z" transform="translate(0 -481.999)" fill="#00ac00"/>
      </g>
    </g>
    <g id="Group_5" data-name="Group 5" transform="translate(8.437 93.375)">
      <g id="Group_4" data-name="Group 4">
        <path id="Path_6" data-name="Path 6" d="M60.093,332H34.219A4.216,4.216,0,0,0,30,336.219v29.531H64.312V336.219A4.216,4.216,0,0,0,60.093,332Z" transform="translate(-30 -332)" fill="#00ac00"/>
      </g>
    </g>
    <g id="Group_7" data-name="Group 7" transform="translate(51.186 68.063)">
      <g id="Group_6" data-name="Group 6">
        <path id="Path_7" data-name="Path 7" d="M211.529,242H186.217A4.216,4.216,0,0,0,182,246.219v54.843h33.749V246.219A4.216,4.216,0,0,0,211.529,242Z" transform="translate(-181.998 -242)" fill="#00ac00"/>
      </g>
    </g>
    <g id="Group_9" data-name="Group 9" transform="translate(76.497 0.002)">
      <g id="Group_8" data-name="Group 8" transform="translate(0 0)">
        <path id="Path_8" data-name="Path 8" d="M338.258,34.987,308.727,1.238a4.217,4.217,0,0,0-5.966,0L273.231,34.987a4.218,4.218,0,0,0,2.983,7.2H288.87v84.936h33.75V42.188h12.656a4.218,4.218,0,0,0,2.983-7.2Z" transform="translate(-271.994 -0.002)" fill="#00ac00"/>
      </g>
    </g>
  </g>
</svg>
